<?xml version="1.0" encoding="UTF-8"?>
<svg width="120" height="120" viewBox="0 0 120 120" fill="none" xmlns="http://www.w3.org/2000/svg">
  <circle cx="60" cy="60" r="58" fill="#2E7D32" stroke="#FFFFFF" stroke-width="4"/>
  <path d="M35 40C35 32.8203 40.8203 27 48 27C55.1797 27 61 32.8203 61 40C61 47.1797 55.1797 53 48 53C40.8203 53 35 47.1797 35 40Z" fill="#81C784"/>
  <path d="M48 85C40.8203 85 35 79.1797 35 72C35 64.8203 40.8203 59 48 59C55.1797 59 61 64.8203 61 72C61 79.1797 55.1797 85 48 85Z" fill="#81C784"/>
  <path d="M72 53C64.8203 53 59 47.1797 59 40C59 32.8203 64.8203 27 72 27C79.1797 27 85 32.8203 85 40C85 47.1797 79.1797 53 72 53Z" fill="#81C784"/>
  <path d="M72 85C64.8203 85 59 79.1797 59 72C59 64.8203 64.8203 59 72 59C79.1797 59 85 64.8203 85 72C85 79.1797 79.1797 85 72 85Z" fill="#81C784"/>
  <path d="M35 40H85M35 72H85M48 27V85M72 27V85" stroke="#FFFFFF" stroke-width="3"/>
  <path d="M45 36L51 44M45 76L51 68M75 36L69 44M75 76L69 68" stroke="#5D4037" stroke-width="3"/>
  <path d="M60 38C60 36.3431 61.3431 35 63 35C64.6569 35 66 36.3431 66 38C66 39.6569 64.6569 41 63 41C61.3431 41 60 39.6569 60 38Z" fill="#5D4037"/>
  <path d="M54 51C54 49.3431 55.3431 48 57 48C58.6569 48 60 49.3431 60 51C60 52.6569 58.6569 54 57 54C55.3431 54 54 52.6569 54 51Z" fill="#5D4037"/>
  <path d="M60 63C60 61.3431 61.3431 60 63 60C64.6569 60 66 61.3431 66 63C66 64.6569 64.6569 66 63 66C61.3431 66 60 64.6569 60 63Z" fill="#5D4037"/>
  <path d="M54 74C54 72.3431 55.3431 71 57 71C58.6569 71 60 72.3431 60 74C60 75.6569 58.6569 77 57 77C55.3431 77 54 75.6569 54 74Z" fill="#5D4037"/>
  <path d="M30 60L90 60" stroke="#FFFFFF" stroke-width="3"/>
</svg>